<svg width="220" height="50" viewBox="0 0 220 50" fill="none" xmlns="http://www.w3.org/2000/svg">
<path d="M25 28.2813C21.4063 22.5 15 18.75 7.8125 18.75C7.03125 18.75 6.40625 18.75 5.625 18.9063C5 20.7813 4.6875 22.8125 4.6875 25C4.6875 35.4687 12.6563 44.0625 22.8125 45.1562" stroke="#408858" stroke-width="2" stroke-miterlimit="10" stroke-linecap="round" stroke-linejoin="round"/>
<path d="M25 28.2813C21.4062 22.5 15 18.75 7.8125 18.75C7.03125 18.75 6.40625 18.75 5.625 18.9063" stroke="#408858" stroke-width="2" stroke-miterlimit="10" stroke-linecap="round" stroke-linejoin="round"/>
<path d="M25 28.2813C27.0312 31.4063 28.125 35.1562 28.125 39.0625C28.125 41.25 27.8125 43.2812 27.1875 45.1562C37.3437 44.0625 45.3125 35.4687 45.3125 25C45.3125 22.8125 45 20.7813 44.375 18.9063C43.5937 18.75 42.9688 18.75 42.1875 18.75C36.7188 18.75 31.875 20.9375 28.125 24.375" stroke="#408858" stroke-width="2" stroke-miterlimit="10" stroke-linecap="round" stroke-linejoin="round"/>
<path d="M10 18.9063C12.0312 12.5 17.9688 7.8125 25 7.8125C30.3125 7.8125 35 10.4687 37.8125 14.375" stroke="#408858" stroke-width="2" stroke-miterlimit="10" stroke-linecap="round" stroke-linejoin="round"/>
<path d="M28.2813 8.125C25.4688 9.0625 23.4375 11.7188 23.4375 14.8438C23.4375 15.9375 23.75 17.0313 24.2187 17.9688C23.2812 17.5 22.1875 17.1875 21.0937 17.1875C18.75 17.1875 16.5625 18.4375 15.3125 20.1562" stroke="#408858" stroke-width="2" stroke-miterlimit="10" stroke-linecap="round" stroke-linejoin="round"/>
<path d="M63.56 19.016C63.976 19.224 64.216 19.552 64.28 20C64.36 20.448 64.248 20.856 63.944 21.224C63.736 21.512 63.464 21.672 63.128 21.704C62.808 21.736 62.48 21.672 62.144 21.512C61.76 21.336 61.352 21.2 60.92 21.104C60.504 21.008 60.064 20.96 59.6 20.96C58.736 20.96 57.96 21.096 57.272 21.368C56.6 21.64 56.024 22.032 55.544 22.544C55.064 23.04 54.696 23.632 54.44 24.32C54.2 25.008 54.08 25.768 54.08 26.6C54.08 27.576 54.216 28.424 54.488 29.144C54.776 29.864 55.168 30.464 55.664 30.944C56.16 31.424 56.744 31.784 57.416 32.024C58.088 32.248 58.816 32.36 59.6 32.36C60.032 32.36 60.464 32.32 60.896 32.24C61.328 32.16 61.744 32.016 62.144 31.808C62.48 31.648 62.808 31.592 63.128 31.64C63.464 31.688 63.744 31.856 63.968 32.144C64.288 32.544 64.4 32.96 64.304 33.392C64.224 33.808 63.984 34.112 63.584 34.304C63.168 34.512 62.736 34.688 62.288 34.832C61.856 34.96 61.416 35.056 60.968 35.12C60.52 35.2 60.064 35.24 59.6 35.24C58.448 35.24 57.352 35.056 56.312 34.688C55.288 34.32 54.368 33.776 53.552 33.056C52.752 32.336 52.12 31.44 51.656 30.368C51.192 29.28 50.96 28.024 50.96 26.6C50.96 25.368 51.168 24.232 51.584 23.192C52.016 22.152 52.616 21.256 53.384 20.504C54.168 19.736 55.088 19.144 56.144 18.728C57.2 18.296 58.352 18.08 59.6 18.08C60.304 18.08 60.992 18.16 61.664 18.32C62.336 18.48 62.968 18.712 63.56 19.016ZM79.0629 28.592C79.0629 29.904 78.7669 31.064 78.1749 32.072C77.5989 33.064 76.8149 33.84 75.8229 34.4C74.8469 34.96 73.7509 35.24 72.5349 35.24C71.3189 35.24 70.2149 34.96 69.2229 34.4C68.2469 33.84 67.4629 33.064 66.8709 32.072C66.2949 31.064 66.0069 29.904 66.0069 28.592C66.0069 27.28 66.2949 26.128 66.8709 25.136C67.4629 24.128 68.2469 23.344 69.2229 22.784C70.2149 22.208 71.3189 21.92 72.5349 21.92C73.7509 21.92 74.8469 22.208 75.8229 22.784C76.8149 23.344 77.5989 24.128 78.1749 25.136C78.7669 26.128 79.0629 27.28 79.0629 28.592ZM76.1829 28.592C76.1829 27.776 76.0149 27.072 75.6789 26.48C75.3589 25.872 74.9189 25.4 74.3589 25.064C73.8149 24.728 73.2069 24.56 72.5349 24.56C71.8629 24.56 71.2469 24.728 70.6869 25.064C70.1429 25.4 69.7029 25.872 69.3669 26.48C69.0469 27.072 68.8869 27.776 68.8869 28.592C68.8869 29.392 69.0469 30.096 69.3669 30.704C69.7029 31.296 70.1429 31.76 70.6869 32.096C71.2469 32.432 71.8629 32.6 72.5349 32.6C73.2069 32.6 73.8149 32.432 74.3589 32.096C74.9189 31.76 75.3589 31.296 75.6789 30.704C76.0149 30.096 76.1829 29.392 76.1829 28.592ZM88.2314 21.92C89.3514 21.92 90.3514 22.208 91.2314 22.784C92.1274 23.344 92.8314 24.12 93.3434 25.112C93.8714 26.104 94.1354 27.256 94.1354 28.568C94.1354 29.88 93.8714 31.04 93.3434 32.048C92.8314 33.04 92.1354 33.824 91.2554 34.4C90.3914 34.96 89.4154 35.24 88.3274 35.24C87.6874 35.24 87.0874 35.136 86.5274 34.928C85.9674 34.72 85.4714 34.456 85.0394 34.136C84.6234 33.816 84.2954 33.496 84.0554 33.176C83.8314 32.84 83.7194 32.56 83.7194 32.336L84.4634 32.024V38.336C84.4634 38.752 84.3274 39.096 84.0554 39.368C83.7834 39.656 83.4394 39.8 83.0234 39.8C82.6074 39.8 82.2634 39.664 81.9914 39.392C81.7194 39.12 81.5834 38.768 81.5834 38.336V23.624C81.5834 23.208 81.7194 22.864 81.9914 22.592C82.2634 22.304 82.6074 22.16 83.0234 22.16C83.4394 22.16 83.7834 22.304 84.0554 22.592C84.3274 22.864 84.4634 23.208 84.4634 23.624V24.8L84.0554 24.584C84.0554 24.376 84.1674 24.128 84.3914 23.84C84.6154 23.536 84.9194 23.24 85.3034 22.952C85.6874 22.648 86.1274 22.4 86.6234 22.208C87.1354 22.016 87.6714 21.92 88.2314 21.92ZM87.8714 24.56C87.1674 24.56 86.5514 24.736 86.0234 25.088C85.4954 25.44 85.0794 25.92 84.7754 26.528C84.4874 27.12 84.3434 27.8 84.3434 28.568C84.3434 29.32 84.4874 30.008 84.7754 30.632C85.0794 31.24 85.4954 31.72 86.0234 32.072C86.5514 32.424 87.1674 32.6 87.8714 32.6C88.5754 32.6 89.1834 32.424 89.6954 32.072C90.2234 31.72 90.6314 31.24 90.9194 30.632C91.2234 30.008 91.3754 29.32 91.3754 28.568C91.3754 27.8 91.2234 27.12 90.9194 26.528C90.6314 25.92 90.2234 25.44 89.6954 25.088C89.1834 24.736 88.5754 24.56 87.8714 24.56ZM103.302 21.92C104.422 21.92 105.422 22.208 106.302 22.784C107.198 23.344 107.902 24.12 108.414 25.112C108.942 26.104 109.206 27.256 109.206 28.568C109.206 29.88 108.942 31.04 108.414 32.048C107.902 33.04 107.206 33.824 106.326 34.4C105.462 34.96 104.486 35.24 103.398 35.24C102.758 35.24 102.158 35.136 101.598 34.928C101.038 34.72 100.542 34.456 100.11 34.136C99.6938 33.816 99.3658 33.496 99.1258 33.176C98.9018 32.84 98.7898 32.56 98.7898 32.336L99.5338 32.024V38.336C99.5338 38.752 99.3978 39.096 99.1258 39.368C98.8538 39.656 98.5098 39.8 98.0938 39.8C97.6778 39.8 97.3338 39.664 97.0618 39.392C96.7898 39.12 96.6538 38.768 96.6538 38.336V23.624C96.6538 23.208 96.7898 22.864 97.0618 22.592C97.3338 22.304 97.6778 22.16 98.0938 22.16C98.5098 22.16 98.8538 22.304 99.1258 22.592C99.3978 22.864 99.5338 23.208 99.5338 23.624V24.8L99.1258 24.584C99.1258 24.376 99.2378 24.128 99.4618 23.84C99.6858 23.536 99.9898 23.24 100.374 22.952C100.758 22.648 101.198 22.4 101.694 22.208C102.206 22.016 102.742 21.92 103.302 21.92ZM102.942 24.56C102.238 24.56 101.622 24.736 101.094 25.088C100.566 25.44 100.15 25.92 99.8458 26.528C99.5578 27.12 99.4138 27.8 99.4138 28.568C99.4138 29.32 99.5578 30.008 99.8458 30.632C100.15 31.24 100.566 31.72 101.094 32.072C101.622 32.424 102.238 32.6 102.942 32.6C103.646 32.6 104.254 32.424 104.766 32.072C105.294 31.72 105.702 31.24 105.99 30.632C106.294 30.008 106.446 29.32 106.446 28.568C106.446 27.8 106.294 27.12 105.99 26.528C105.702 25.92 105.294 25.44 104.766 25.088C104.254 24.736 103.646 24.56 102.942 24.56ZM117.772 35.24C116.412 35.24 115.228 34.96 114.22 34.4C113.228 33.824 112.46 33.048 111.916 32.072C111.388 31.096 111.124 29.992 111.124 28.76C111.124 27.32 111.412 26.096 111.988 25.088C112.58 24.064 113.348 23.28 114.292 22.736C115.236 22.192 116.236 21.92 117.292 21.92C118.108 21.92 118.876 22.088 119.596 22.424C120.332 22.76 120.98 23.224 121.54 23.816C122.1 24.392 122.54 25.064 122.86 25.832C123.196 26.6 123.364 27.416 123.364 28.28C123.348 28.664 123.196 28.976 122.908 29.216C122.62 29.456 122.284 29.576 121.9 29.576H112.732L112.012 27.176H120.82L120.292 27.656V27.008C120.26 26.544 120.092 26.128 119.788 25.76C119.5 25.392 119.132 25.104 118.684 24.896C118.252 24.672 117.788 24.56 117.292 24.56C116.812 24.56 116.364 24.624 115.948 24.752C115.532 24.88 115.172 25.096 114.868 25.4C114.564 25.704 114.324 26.112 114.148 26.624C113.972 27.136 113.884 27.784 113.884 28.568C113.884 29.432 114.06 30.168 114.412 30.776C114.78 31.368 115.244 31.824 115.804 32.144C116.38 32.448 116.988 32.6 117.628 32.6C118.22 32.6 118.692 32.552 119.044 32.456C119.396 32.36 119.676 32.248 119.884 32.12C120.108 31.976 120.308 31.856 120.484 31.76C120.772 31.616 121.044 31.544 121.3 31.544C121.652 31.544 121.94 31.664 122.164 31.904C122.404 32.144 122.524 32.424 122.524 32.744C122.524 33.176 122.3 33.568 121.852 33.92C121.436 34.272 120.852 34.584 120.1 34.856C119.348 35.112 118.572 35.24 117.772 35.24ZM127.32 35C126.904 35 126.56 34.864 126.288 34.592C126.016 34.304 125.88 33.952 125.88 33.536V23.624C125.88 23.208 126.016 22.864 126.288 22.592C126.56 22.304 126.904 22.16 127.32 22.16C127.736 22.16 128.08 22.304 128.352 22.592C128.624 22.864 128.76 23.208 128.76 23.624V25.88L128.592 24.272C128.768 23.888 128.992 23.552 129.264 23.264C129.552 22.96 129.872 22.712 130.224 22.52C130.576 22.312 130.952 22.16 131.352 22.064C131.752 21.968 132.152 21.92 132.552 21.92C133.032 21.92 133.432 22.056 133.752 22.328C134.088 22.6 134.256 22.92 134.256 23.288C134.256 23.816 134.12 24.2 133.848 24.44C133.576 24.664 133.28 24.776 132.96 24.776C132.656 24.776 132.376 24.72 132.12 24.608C131.88 24.496 131.6 24.44 131.28 24.44C130.992 24.44 130.696 24.512 130.392 24.656C130.104 24.784 129.832 24.992 129.576 25.28C129.336 25.568 129.136 25.928 128.976 26.36C128.832 26.776 128.76 27.272 128.76 27.848V33.536C128.76 33.952 128.624 34.304 128.352 34.592C128.08 34.864 127.736 35 127.32 35ZM148.653 35.24C147.533 35.24 146.525 35.104 145.629 34.832C144.733 34.544 143.877 34.048 143.061 33.344C142.853 33.168 142.693 32.968 142.581 32.744C142.469 32.52 142.413 32.296 142.413 32.072C142.413 31.704 142.541 31.384 142.797 31.112C143.069 30.824 143.405 30.68 143.805 30.68C144.109 30.68 144.381 30.776 144.621 30.968C145.229 31.464 145.829 31.84 146.421 32.096C147.029 32.352 147.773 32.48 148.653 32.48C149.245 32.48 149.789 32.392 150.285 32.216C150.781 32.024 151.181 31.776 151.485 31.472C151.789 31.152 151.941 30.792 151.941 30.392C151.941 29.912 151.797 29.504 151.509 29.168C151.221 28.832 150.781 28.552 150.189 28.328C149.597 28.088 148.845 27.904 147.933 27.776C147.069 27.648 146.309 27.456 145.653 27.2C144.997 26.928 144.445 26.592 143.997 26.192C143.565 25.776 143.237 25.296 143.013 24.752C142.789 24.192 142.677 23.568 142.677 22.88C142.677 21.84 142.941 20.952 143.469 20.216C144.013 19.48 144.741 18.92 145.653 18.536C146.565 18.152 147.573 17.96 148.677 17.96C149.717 17.96 150.677 18.12 151.557 18.44C152.453 18.744 153.181 19.136 153.741 19.616C154.205 19.984 154.437 20.408 154.437 20.888C154.437 21.24 154.301 21.56 154.029 21.848C153.757 22.136 153.437 22.28 153.069 22.28C152.829 22.28 152.613 22.208 152.421 22.064C152.165 21.84 151.821 21.632 151.389 21.44C150.957 21.232 150.501 21.064 150.021 20.936C149.541 20.792 149.093 20.72 148.677 20.72C147.989 20.72 147.405 20.808 146.925 20.984C146.461 21.16 146.109 21.4 145.869 21.704C145.629 22.008 145.509 22.36 145.509 22.76C145.509 23.24 145.645 23.64 145.917 23.96C146.205 24.264 146.613 24.512 147.141 24.704C147.669 24.88 148.301 25.04 149.037 25.184C149.997 25.36 150.837 25.568 151.557 25.808C152.293 26.048 152.901 26.36 153.381 26.744C153.861 27.112 154.221 27.584 154.461 28.16C154.701 28.72 154.821 29.408 154.821 30.224C154.821 31.264 154.533 32.16 153.957 32.912C153.381 33.664 152.621 34.24 151.677 34.64C150.749 35.04 149.741 35.24 148.653 35.24ZM166.861 22.16C167.277 22.16 167.621 22.304 167.893 22.592C168.165 22.864 168.301 23.208 168.301 23.624V29.72C168.301 31.416 167.829 32.76 166.885 33.752C165.941 34.744 164.581 35.24 162.805 35.24C161.029 35.24 159.669 34.744 158.725 33.752C157.797 32.76 157.333 31.416 157.333 29.72V23.624C157.333 23.208 157.469 22.864 157.741 22.592C158.013 22.304 158.357 22.16 158.773 22.16C159.189 22.16 159.533 22.304 159.805 22.592C160.077 22.864 160.213 23.208 160.213 23.624V29.72C160.213 30.696 160.429 31.424 160.861 31.904C161.293 32.368 161.941 32.6 162.805 32.6C163.685 32.6 164.341 32.368 164.773 31.904C165.205 31.424 165.421 30.696 165.421 29.72V23.624C165.421 23.208 165.557 22.864 165.829 22.592C166.101 22.304 166.445 22.16 166.861 22.16ZM178.283 21.92C179.467 21.92 180.363 22.168 180.971 22.664C181.595 23.16 182.019 23.824 182.243 24.656C182.483 25.472 182.603 26.384 182.603 27.392V33.536C182.603 33.952 182.467 34.304 182.195 34.592C181.923 34.864 181.579 35 181.163 35C180.747 35 180.403 34.864 180.131 34.592C179.859 34.304 179.723 33.952 179.723 33.536V27.392C179.723 26.864 179.651 26.392 179.507 25.976C179.379 25.544 179.139 25.2 178.787 24.944C178.435 24.688 177.931 24.56 177.275 24.56C176.635 24.56 176.091 24.688 175.643 24.944C175.211 25.2 174.875 25.544 174.635 25.976C174.411 26.392 174.299 26.864 174.299 27.392V33.536C174.299 33.952 174.163 34.304 173.891 34.592C173.619 34.864 173.275 35 172.859 35C172.443 35 172.099 34.864 171.827 34.592C171.555 34.304 171.419 33.952 171.419 33.536V23.624C171.419 23.208 171.555 22.864 171.827 22.592C172.099 22.304 172.443 22.16 172.859 22.16C173.275 22.16 173.619 22.304 173.891 22.592C174.163 22.864 174.299 23.208 174.299 23.624V24.656L173.939 24.584C174.083 24.312 174.291 24.024 174.563 23.72C174.835 23.4 175.155 23.104 175.523 22.832C175.891 22.56 176.307 22.344 176.771 22.184C177.235 22.008 177.739 21.92 178.283 21.92ZM184.972 33.008C184.812 32.784 184.74 32.496 184.756 32.144C184.772 31.792 184.98 31.488 185.38 31.232C185.636 31.072 185.908 31.008 186.196 31.04C186.484 31.056 186.764 31.2 187.036 31.472C187.5 31.936 187.988 32.296 188.5 32.552C189.012 32.808 189.652 32.936 190.42 32.936C190.66 32.92 190.924 32.888 191.212 32.84C191.5 32.776 191.748 32.648 191.956 32.456C192.18 32.248 192.292 31.936 192.292 31.52C192.292 31.168 192.172 30.888 191.932 30.68C191.692 30.472 191.372 30.296 190.972 30.152C190.588 30.008 190.156 29.872 189.676 29.744C189.18 29.6 188.668 29.44 188.14 29.264C187.628 29.088 187.156 28.864 186.724 28.592C186.292 28.304 185.94 27.928 185.668 27.464C185.396 27 185.26 26.416 185.26 25.712C185.26 24.912 185.484 24.232 185.932 23.672C186.38 23.112 186.956 22.68 187.66 22.376C188.38 22.072 189.132 21.92 189.916 21.92C190.412 21.92 190.932 21.984 191.476 22.112C192.02 22.224 192.54 22.416 193.036 22.688C193.532 22.944 193.948 23.288 194.284 23.72C194.46 23.96 194.564 24.248 194.596 24.584C194.628 24.92 194.476 25.224 194.14 25.496C193.9 25.688 193.62 25.776 193.3 25.76C192.98 25.728 192.716 25.616 192.508 25.424C192.236 25.072 191.868 24.792 191.404 24.584C190.956 24.376 190.436 24.272 189.844 24.272C189.604 24.272 189.34 24.304 189.052 24.368C188.78 24.416 188.54 24.536 188.332 24.728C188.124 24.904 188.02 25.192 188.02 25.592C188.02 25.96 188.14 26.256 188.38 26.48C188.62 26.688 188.94 26.864 189.34 27.008C189.756 27.136 190.196 27.264 190.66 27.392C191.14 27.52 191.628 27.672 192.124 27.848C192.62 28.024 193.076 28.256 193.492 28.544C193.908 28.832 194.244 29.208 194.5 29.672C194.756 30.12 194.884 30.696 194.884 31.4C194.884 32.216 194.644 32.912 194.164 33.488C193.684 34.064 193.084 34.504 192.364 34.808C191.644 35.096 190.908 35.24 190.156 35.24C189.212 35.24 188.268 35.08 187.324 34.76C186.38 34.424 185.596 33.84 184.972 33.008ZM203.342 35.24C201.982 35.24 200.798 34.96 199.79 34.4C198.798 33.824 198.03 33.048 197.486 32.072C196.958 31.096 196.694 29.992 196.694 28.76C196.694 27.32 196.982 26.096 197.558 25.088C198.15 24.064 198.918 23.28 199.862 22.736C200.806 22.192 201.806 21.92 202.862 21.92C203.678 21.92 204.446 22.088 205.166 22.424C205.902 22.76 206.55 23.224 207.11 23.816C207.67 24.392 208.11 25.064 208.43 25.832C208.766 26.6 208.934 27.416 208.934 28.28C208.918 28.664 208.766 28.976 208.478 29.216C208.19 29.456 207.854 29.576 207.47 29.576H198.302L197.582 27.176H206.39L205.862 27.656V27.008C205.83 26.544 205.662 26.128 205.358 25.76C205.07 25.392 204.702 25.104 204.254 24.896C203.822 24.672 203.358 24.56 202.862 24.56C202.382 24.56 201.934 24.624 201.518 24.752C201.102 24.88 200.742 25.096 200.438 25.4C200.134 25.704 199.894 26.112 199.718 26.624C199.542 27.136 199.454 27.784 199.454 28.568C199.454 29.432 199.63 30.168 199.982 30.776C200.35 31.368 200.814 31.824 201.374 32.144C201.95 32.448 202.558 32.6 203.198 32.6C203.79 32.6 204.262 32.552 204.614 32.456C204.966 32.36 205.246 32.248 205.454 32.12C205.678 31.976 205.878 31.856 206.054 31.76C206.342 31.616 206.614 31.544 206.87 31.544C207.222 31.544 207.51 31.664 207.734 31.904C207.974 32.144 208.094 32.424 208.094 32.744C208.094 33.176 207.87 33.568 207.422 33.92C207.006 34.272 206.422 34.584 205.67 34.856C204.918 35.112 204.142 35.24 203.342 35.24ZM211.595 22.4H217.283C217.667 22.4 217.987 22.528 218.243 22.784C218.499 23.04 218.627 23.36 218.627 23.744C218.627 24.112 218.499 24.424 218.243 24.68C217.987 24.92 217.667 25.04 217.283 25.04H211.595C211.211 25.04 210.891 24.912 210.635 24.656C210.379 24.4 210.251 24.08 210.251 23.696C210.251 23.328 210.379 23.024 210.635 22.784C210.891 22.528 211.211 22.4 211.595 22.4ZM214.163 19.4C214.579 19.4 214.915 19.544 215.171 19.832C215.443 20.104 215.579 20.448 215.579 20.864V31.544C215.579 31.768 215.619 31.952 215.699 32.096C215.795 32.24 215.915 32.344 216.059 32.408C216.219 32.472 216.387 32.504 216.563 32.504C216.755 32.504 216.931 32.472 217.091 32.408C217.251 32.328 217.435 32.288 217.643 32.288C217.867 32.288 218.067 32.392 218.243 32.6C218.435 32.808 218.531 33.096 218.531 33.464C218.531 33.912 218.283 34.28 217.787 34.568C217.307 34.856 216.787 35 216.227 35C215.891 35 215.515 34.976 215.099 34.928C214.699 34.864 214.315 34.728 213.947 34.52C213.595 34.296 213.299 33.96 213.059 33.512C212.819 33.064 212.699 32.448 212.699 31.664V20.864C212.699 20.448 212.835 20.104 213.107 19.832C213.395 19.544 213.747 19.4 214.163 19.4Z" fill="black"/>
</svg>
