<svg width="220" height="50" viewBox="0 0 220 50" fill="none" xmlns="http://www.w3.org/2000/svg">
<path d="M25 28.2813C21.4063 22.5 15 18.75 7.8125 18.75C7.03125 18.75 6.40625 18.75 5.625 18.9063C5 20.7813 4.6875 22.8125 4.6875 25C4.6875 35.4687 12.6563 44.0625 22.8125 45.1562" stroke="#408858" stroke-width="2" stroke-miterlimit="10" stroke-linecap="round" stroke-linejoin="round"/>
<path d="M25 28.2813C21.4062 22.5 15 18.75 7.8125 18.75C7.03125 18.75 6.40625 18.75 5.625 18.9063" stroke="#408858" stroke-width="2" stroke-miterlimit="10" stroke-linecap="round" stroke-linejoin="round"/>
<path d="M25 28.2813C27.0312 31.4063 28.125 35.1562 28.125 39.0625C28.125 41.25 27.8125 43.2812 27.1875 45.1562C37.3437 44.0625 45.3125 35.4687 45.3125 25C45.3125 22.8125 45 20.7813 44.375 18.9063C43.5937 18.75 42.9688 18.75 42.1875 18.75C36.7188 18.75 31.875 20.9375 28.125 24.375" stroke="#408858" stroke-width="2" stroke-miterlimit="10" stroke-linecap="round" stroke-linejoin="round"/>
<path d="M10 18.9063C12.0312 12.5 17.9688 7.8125 25 7.8125C30.3125 7.8125 35 10.4687 37.8125 14.375" stroke="#408858" stroke-width="2" stroke-miterlimit="10" stroke-linecap="round" stroke-linejoin="round"/>
<path d="M28.2813 8.125C25.4688 9.0625 23.4375 11.7188 23.4375 14.8438C23.4375 15.9375 23.75 17.0313 24.2187 17.9688C23.2812 17.5 22.1875 17.1875 21.0937 17.1875C18.75 17.1875 16.5625 18.4375 15.3125 20.1562" stroke="#408858" stroke-width="2" stroke-miterlimit="10" stroke-linecap="round" stroke-linejoin="round"/>
<path d="M63.56 28.016C63.976 28.224 64.216 28.552 64.28 29C64.36 29.448 64.248 29.856 63.944 30.224C63.736 30.512 63.464 30.672 63.128 30.704C62.808 30.736 62.48 30.672 62.144 30.512C61.76 30.336 61.352 30.2 60.92 30.104C60.504 30.008 60.064 29.96 59.6 29.96C58.736 29.96 57.96 30.096 57.272 30.368C56.6 30.64 56.024 31.032 55.544 31.544C55.064 32.04 54.696 32.632 54.44 33.32C54.2 34.008 54.08 34.768 54.08 35.6C54.08 36.576 54.216 37.424 54.488 38.144C54.776 38.864 55.168 39.464 55.664 39.944C56.16 40.424 56.744 40.784 57.416 41.024C58.088 41.248 58.816 41.36 59.6 41.36C60.032 41.36 60.464 41.32 60.896 41.24C61.328 41.16 61.744 41.016 62.144 40.808C62.48 40.648 62.808 40.592 63.128 40.64C63.464 40.688 63.744 40.856 63.968 41.144C64.288 41.544 64.4 41.96 64.304 42.392C64.224 42.808 63.984 43.112 63.584 43.304C63.168 43.512 62.736 43.688 62.288 43.832C61.856 43.96 61.416 44.056 60.968 44.12C60.52 44.2 60.064 44.24 59.6 44.24C58.448 44.24 57.352 44.056 56.312 43.688C55.288 43.32 54.368 42.776 53.552 42.056C52.752 41.336 52.12 40.44 51.656 39.368C51.192 38.28 50.96 37.024 50.96 35.6C50.96 34.368 51.168 33.232 51.584 32.192C52.016 31.152 52.616 30.256 53.384 29.504C54.168 28.736 55.088 28.144 56.144 27.728C57.2 27.296 58.352 27.08 59.6 27.08C60.304 27.08 60.992 27.16 61.664 27.32C62.336 27.48 62.968 27.712 63.56 28.016ZM79.0629 37.592C79.0629 38.904 78.7669 40.064 78.1749 41.072C77.5989 42.064 76.8149 42.84 75.8229 43.4C74.8469 43.96 73.7509 44.24 72.5349 44.24C71.3189 44.24 70.2149 43.96 69.2229 43.4C68.2469 42.84 67.4629 42.064 66.8709 41.072C66.2949 40.064 66.0069 38.904 66.0069 37.592C66.0069 36.28 66.2949 35.128 66.8709 34.136C67.4629 33.128 68.2469 32.344 69.2229 31.784C70.2149 31.208 71.3189 30.92 72.5349 30.92C73.7509 30.92 74.8469 31.208 75.8229 31.784C76.8149 32.344 77.5989 33.128 78.1749 34.136C78.7669 35.128 79.0629 36.28 79.0629 37.592ZM76.1829 37.592C76.1829 36.776 76.0149 36.072 75.6789 35.48C75.3589 34.872 74.9189 34.4 74.3589 34.064C73.8149 33.728 73.2069 33.56 72.5349 33.56C71.8629 33.56 71.2469 33.728 70.6869 34.064C70.1429 34.4 69.7029 34.872 69.3669 35.48C69.0469 36.072 68.8869 36.776 68.8869 37.592C68.8869 38.392 69.0469 39.096 69.3669 39.704C69.7029 40.296 70.1429 40.76 70.6869 41.096C71.2469 41.432 71.8629 41.6 72.5349 41.6C73.2069 41.6 73.8149 41.432 74.3589 41.096C74.9189 40.76 75.3589 40.296 75.6789 39.704C76.0149 39.096 76.1829 38.392 76.1829 37.592ZM88.2314 30.92C89.3514 30.92 90.3514 31.208 91.2314 31.784C92.1274 32.344 92.8314 33.12 93.3434 34.112C93.8714 35.104 94.1354 36.256 94.1354 37.568C94.1354 38.88 93.8714 40.04 93.3434 41.048C92.8314 42.04 92.1354 42.824 91.2554 43.4C90.3914 43.96 89.4154 44.24 88.3274 44.24C87.6874 44.24 87.0874 44.136 86.5274 43.928C85.9674 43.72 85.4714 43.456 85.0394 43.136C84.6234 42.816 84.2954 42.496 84.0554 42.176C83.8314 41.84 83.7194 41.56 83.7194 41.336L84.4634 41.024V47.336C84.4634 47.752 84.3274 48.096 84.0554 48.368C83.7834 48.656 83.4394 48.8 83.0234 48.8C82.6074 48.8 82.2634 48.664 81.9914 48.392C81.7194 48.12 81.5834 47.768 81.5834 47.336V32.624C81.5834 32.208 81.7194 31.864 81.9914 31.592C82.2634 31.304 82.6074 31.16 83.0234 31.16C83.4394 31.16 83.7834 31.304 84.0554 31.592C84.3274 31.864 84.4634 32.208 84.4634 32.624V33.8L84.0554 33.584C84.0554 33.376 84.1674 33.128 84.3914 32.84C84.6154 32.536 84.9194 32.24 85.3034 31.952C85.6874 31.648 86.1274 31.4 86.6234 31.208C87.1354 31.016 87.6714 30.92 88.2314 30.92ZM87.8714 33.56C87.1674 33.56 86.5514 33.736 86.0234 34.088C85.4954 34.44 85.0794 34.92 84.7754 35.528C84.4874 36.12 84.3434 36.8 84.3434 37.568C84.3434 38.32 84.4874 39.008 84.7754 39.632C85.0794 40.24 85.4954 40.72 86.0234 41.072C86.5514 41.424 87.1674 41.6 87.8714 41.6C88.5754 41.6 89.1834 41.424 89.6954 41.072C90.2234 40.72 90.6314 40.24 90.9194 39.632C91.2234 39.008 91.3754 38.32 91.3754 37.568C91.3754 36.8 91.2234 36.12 90.9194 35.528C90.6314 34.92 90.2234 34.44 89.6954 34.088C89.1834 33.736 88.5754 33.56 87.8714 33.56ZM103.302 30.92C104.422 30.92 105.422 31.208 106.302 31.784C107.198 32.344 107.902 33.12 108.414 34.112C108.942 35.104 109.206 36.256 109.206 37.568C109.206 38.88 108.942 40.04 108.414 41.048C107.902 42.04 107.206 42.824 106.326 43.4C105.462 43.96 104.486 44.24 103.398 44.24C102.758 44.24 102.158 44.136 101.598 43.928C101.038 43.72 100.542 43.456 100.11 43.136C99.6938 42.816 99.3658 42.496 99.1258 42.176C98.9018 41.84 98.7898 41.56 98.7898 41.336L99.5338 41.024V47.336C99.5338 47.752 99.3978 48.096 99.1258 48.368C98.8538 48.656 98.5098 48.8 98.0938 48.8C97.6778 48.8 97.3338 48.664 97.0618 48.392C96.7898 48.12 96.6538 47.768 96.6538 47.336V32.624C96.6538 32.208 96.7898 31.864 97.0618 31.592C97.3338 31.304 97.6778 31.16 98.0938 31.16C98.5098 31.16 98.8538 31.304 99.1258 31.592C99.3978 31.864 99.5338 32.208 99.5338 32.624V33.8L99.1258 33.584C99.1258 33.376 99.2378 33.128 99.4618 32.84C99.6858 32.536 99.9898 32.24 100.374 31.952C100.758 31.648 101.198 31.4 101.694 31.208C102.206 31.016 102.742 30.92 103.302 30.92ZM102.942 33.56C102.238 33.56 101.622 33.736 101.094 34.088C100.566 34.44 100.15 34.92 99.8458 35.528C99.5578 36.12 99.4138 36.8 99.4138 37.568C99.4138 38.32 99.5578 39.008 99.8458 39.632C100.15 40.24 100.566 40.72 101.094 41.072C101.622 41.424 102.238 41.6 102.942 41.6C103.646 41.6 104.254 41.424 104.766 41.072C105.294 40.72 105.702 40.24 105.99 39.632C106.294 39.008 106.446 38.32 106.446 37.568C106.446 36.8 106.294 36.12 105.99 35.528C105.702 34.92 105.294 34.44 104.766 34.088C104.254 33.736 103.646 33.56 102.942 33.56ZM117.772 44.24C116.412 44.24 115.228 43.96 114.22 43.4C113.228 42.824 112.46 42.048 111.916 41.072C111.388 40.096 111.124 38.992 111.124 37.76C111.124 36.32 111.412 35.096 111.988 34.088C112.58 33.064 113.348 32.28 114.292 31.736C115.236 31.192 116.236 30.92 117.292 30.92C118.108 30.92 118.876 31.088 119.596 31.424C120.332 31.76 120.98 32.224 121.54 32.816C122.1 33.392 122.54 34.064 122.86 34.832C123.196 35.6 123.364 36.416 123.364 37.28C123.348 37.664 123.196 37.976 122.908 38.216C122.62 38.456 122.284 38.576 121.9 38.576H112.732L112.012 36.176H120.82L120.292 36.656V36.008C120.26 35.544 120.092 35.128 119.788 34.76C119.5 34.392 119.132 34.104 118.684 33.896C118.252 33.672 117.788 33.56 117.292 33.56C116.812 33.56 116.364 33.624 115.948 33.752C115.532 33.88 115.172 34.096 114.868 34.4C114.564 34.704 114.324 35.112 114.148 35.624C113.972 36.136 113.884 36.784 113.884 37.568C113.884 38.432 114.06 39.168 114.412 39.776C114.78 40.368 115.244 40.824 115.804 41.144C116.38 41.448 116.988 41.6 117.628 41.6C118.22 41.6 118.692 41.552 119.044 41.456C119.396 41.36 119.676 41.248 119.884 41.12C120.108 40.976 120.308 40.856 120.484 40.76C120.772 40.616 121.044 40.544 121.3 40.544C121.652 40.544 121.94 40.664 122.164 40.904C122.404 41.144 122.524 41.424 122.524 41.744C122.524 42.176 122.3 42.568 121.852 42.92C121.436 43.272 120.852 43.584 120.1 43.856C119.348 44.112 118.572 44.24 117.772 44.24ZM127.32 44C126.904 44 126.56 43.864 126.288 43.592C126.016 43.304 125.88 42.952 125.88 42.536V32.624C125.88 32.208 126.016 31.864 126.288 31.592C126.56 31.304 126.904 31.16 127.32 31.16C127.736 31.16 128.08 31.304 128.352 31.592C128.624 31.864 128.76 32.208 128.76 32.624V34.88L128.592 33.272C128.768 32.888 128.992 32.552 129.264 32.264C129.552 31.96 129.872 31.712 130.224 31.52C130.576 31.312 130.952 31.16 131.352 31.064C131.752 30.968 132.152 30.92 132.552 30.92C133.032 30.92 133.432 31.056 133.752 31.328C134.088 31.6 134.256 31.92 134.256 32.288C134.256 32.816 134.12 33.2 133.848 33.44C133.576 33.664 133.28 33.776 132.96 33.776C132.656 33.776 132.376 33.72 132.12 33.608C131.88 33.496 131.6 33.44 131.28 33.44C130.992 33.44 130.696 33.512 130.392 33.656C130.104 33.784 129.832 33.992 129.576 34.28C129.336 34.568 129.136 34.928 128.976 35.36C128.832 35.776 128.76 36.272 128.76 36.848V42.536C128.76 42.952 128.624 43.304 128.352 43.592C128.08 43.864 127.736 44 127.32 44ZM148.653 44.24C147.533 44.24 146.525 44.104 145.629 43.832C144.733 43.544 143.877 43.048 143.061 42.344C142.853 42.168 142.693 41.968 142.581 41.744C142.469 41.52 142.413 41.296 142.413 41.072C142.413 40.704 142.541 40.384 142.797 40.112C143.069 39.824 143.405 39.68 143.805 39.68C144.109 39.68 144.381 39.776 144.621 39.968C145.229 40.464 145.829 40.84 146.421 41.096C147.029 41.352 147.773 41.48 148.653 41.48C149.245 41.48 149.789 41.392 150.285 41.216C150.781 41.024 151.181 40.776 151.485 40.472C151.789 40.152 151.941 39.792 151.941 39.392C151.941 38.912 151.797 38.504 151.509 38.168C151.221 37.832 150.781 37.552 150.189 37.328C149.597 37.088 148.845 36.904 147.933 36.776C147.069 36.648 146.309 36.456 145.653 36.2C144.997 35.928 144.445 35.592 143.997 35.192C143.565 34.776 143.237 34.296 143.013 33.752C142.789 33.192 142.677 32.568 142.677 31.88C142.677 30.84 142.941 29.952 143.469 29.216C144.013 28.48 144.741 27.92 145.653 27.536C146.565 27.152 147.573 26.96 148.677 26.96C149.717 26.96 150.677 27.12 151.557 27.44C152.453 27.744 153.181 28.136 153.741 28.616C154.205 28.984 154.437 29.408 154.437 29.888C154.437 30.24 154.301 30.56 154.029 30.848C153.757 31.136 153.437 31.28 153.069 31.28C152.829 31.28 152.613 31.208 152.421 31.064C152.165 30.84 151.821 30.632 151.389 30.44C150.957 30.232 150.501 30.064 150.021 29.936C149.541 29.792 149.093 29.72 148.677 29.72C147.989 29.72 147.405 29.808 146.925 29.984C146.461 30.16 146.109 30.4 145.869 30.704C145.629 31.008 145.509 31.36 145.509 31.76C145.509 32.24 145.645 32.64 145.917 32.96C146.205 33.264 146.613 33.512 147.141 33.704C147.669 33.88 148.301 34.04 149.037 34.184C149.997 34.36 150.837 34.568 151.557 34.808C152.293 35.048 152.901 35.36 153.381 35.744C153.861 36.112 154.221 36.584 154.461 37.16C154.701 37.72 154.821 38.408 154.821 39.224C154.821 40.264 154.533 41.16 153.957 41.912C153.381 42.664 152.621 43.24 151.677 43.64C150.749 44.04 149.741 44.24 148.653 44.24ZM166.861 31.16C167.277 31.16 167.621 31.304 167.893 31.592C168.165 31.864 168.301 32.208 168.301 32.624V38.72C168.301 40.416 167.829 41.76 166.885 42.752C165.941 43.744 164.581 44.24 162.805 44.24C161.029 44.24 159.669 43.744 158.725 42.752C157.797 41.76 157.333 40.416 157.333 38.72V32.624C157.333 32.208 157.469 31.864 157.741 31.592C158.013 31.304 158.357 31.16 158.773 31.16C159.189 31.16 159.533 31.304 159.805 31.592C160.077 31.864 160.213 32.208 160.213 32.624V38.72C160.213 39.696 160.429 40.424 160.861 40.904C161.293 41.368 161.941 41.6 162.805 41.6C163.685 41.6 164.341 41.368 164.773 40.904C165.205 40.424 165.421 39.696 165.421 38.72V32.624C165.421 32.208 165.557 31.864 165.829 31.592C166.101 31.304 166.445 31.16 166.861 31.16ZM178.283 30.92C179.467 30.92 180.363 31.168 180.971 31.664C181.595 32.16 182.019 32.824 182.243 33.656C182.483 34.472 182.603 35.384 182.603 36.392V42.536C182.603 42.952 182.467 43.304 182.195 43.592C181.923 43.864 181.579 44 181.163 44C180.747 44 180.403 43.864 180.131 43.592C179.859 43.304 179.723 42.952 179.723 42.536V36.392C179.723 35.864 179.651 35.392 179.507 34.976C179.379 34.544 179.139 34.2 178.787 33.944C178.435 33.688 177.931 33.56 177.275 33.56C176.635 33.56 176.091 33.688 175.643 33.944C175.211 34.2 174.875 34.544 174.635 34.976C174.411 35.392 174.299 35.864 174.299 36.392V42.536C174.299 42.952 174.163 43.304 173.891 43.592C173.619 43.864 173.275 44 172.859 44C172.443 44 172.099 43.864 171.827 43.592C171.555 43.304 171.419 42.952 171.419 42.536V32.624C171.419 32.208 171.555 31.864 171.827 31.592C172.099 31.304 172.443 31.16 172.859 31.16C173.275 31.16 173.619 31.304 173.891 31.592C174.163 31.864 174.299 32.208 174.299 32.624V33.656L173.939 33.584C174.083 33.312 174.291 33.024 174.563 32.72C174.835 32.4 175.155 32.104 175.523 31.832C175.891 31.56 176.307 31.344 176.771 31.184C177.235 31.008 177.739 30.92 178.283 30.92ZM184.972 42.008C184.812 41.784 184.74 41.496 184.756 41.144C184.772 40.792 184.98 40.488 185.38 40.232C185.636 40.072 185.908 40.008 186.196 40.04C186.484 40.056 186.764 40.2 187.036 40.472C187.5 40.936 187.988 41.296 188.5 41.552C189.012 41.808 189.652 41.936 190.42 41.936C190.66 41.92 190.924 41.888 191.212 41.84C191.5 41.776 191.748 41.648 191.956 41.456C192.18 41.248 192.292 40.936 192.292 40.52C192.292 40.168 192.172 39.888 191.932 39.68C191.692 39.472 191.372 39.296 190.972 39.152C190.588 39.008 190.156 38.872 189.676 38.744C189.18 38.6 188.668 38.44 188.14 38.264C187.628 38.088 187.156 37.864 186.724 37.592C186.292 37.304 185.94 36.928 185.668 36.464C185.396 36 185.26 35.416 185.26 34.712C185.26 33.912 185.484 33.232 185.932 32.672C186.38 32.112 186.956 31.68 187.66 31.376C188.38 31.072 189.132 30.92 189.916 30.92C190.412 30.92 190.932 30.984 191.476 31.112C192.02 31.224 192.54 31.416 193.036 31.688C193.532 31.944 193.948 32.288 194.284 32.72C194.46 32.96 194.564 33.248 194.596 33.584C194.628 33.92 194.476 34.224 194.14 34.496C193.9 34.688 193.62 34.776 193.3 34.76C192.98 34.728 192.716 34.616 192.508 34.424C192.236 34.072 191.868 33.792 191.404 33.584C190.956 33.376 190.436 33.272 189.844 33.272C189.604 33.272 189.34 33.304 189.052 33.368C188.78 33.416 188.54 33.536 188.332 33.728C188.124 33.904 188.02 34.192 188.02 34.592C188.02 34.96 188.14 35.256 188.38 35.48C188.62 35.688 188.94 35.864 189.34 36.008C189.756 36.136 190.196 36.264 190.66 36.392C191.14 36.52 191.628 36.672 192.124 36.848C192.62 37.024 193.076 37.256 193.492 37.544C193.908 37.832 194.244 38.208 194.5 38.672C194.756 39.12 194.884 39.696 194.884 40.4C194.884 41.216 194.644 41.912 194.164 42.488C193.684 43.064 193.084 43.504 192.364 43.808C191.644 44.096 190.908 44.24 190.156 44.24C189.212 44.24 188.268 44.08 187.324 43.76C186.38 43.424 185.596 42.84 184.972 42.008ZM203.342 44.24C201.982 44.24 200.798 43.96 199.79 43.4C198.798 42.824 198.03 42.048 197.486 41.072C196.958 40.096 196.694 38.992 196.694 37.76C196.694 36.32 196.982 35.096 197.558 34.088C198.15 33.064 198.918 32.28 199.862 31.736C200.806 31.192 201.806 30.92 202.862 30.92C203.678 30.92 204.446 31.088 205.166 31.424C205.902 31.76 206.55 32.224 207.11 32.816C207.67 33.392 208.11 34.064 208.43 34.832C208.766 35.6 208.934 36.416 208.934 37.28C208.918 37.664 208.766 37.976 208.478 38.216C208.19 38.456 207.854 38.576 207.47 38.576H198.302L197.582 36.176H206.39L205.862 36.656V36.008C205.83 35.544 205.662 35.128 205.358 34.76C205.07 34.392 204.702 34.104 204.254 33.896C203.822 33.672 203.358 33.56 202.862 33.56C202.382 33.56 201.934 33.624 201.518 33.752C201.102 33.88 200.742 34.096 200.438 34.4C200.134 34.704 199.894 35.112 199.718 35.624C199.542 36.136 199.454 36.784 199.454 37.568C199.454 38.432 199.63 39.168 199.982 39.776C200.35 40.368 200.814 40.824 201.374 41.144C201.95 41.448 202.558 41.6 203.198 41.6C203.79 41.6 204.262 41.552 204.614 41.456C204.966 41.36 205.246 41.248 205.454 41.12C205.678 40.976 205.878 40.856 206.054 40.76C206.342 40.616 206.614 40.544 206.87 40.544C207.222 40.544 207.51 40.664 207.734 40.904C207.974 41.144 208.094 41.424 208.094 41.744C208.094 42.176 207.87 42.568 207.422 42.92C207.006 43.272 206.422 43.584 205.67 43.856C204.918 44.112 204.142 44.24 203.342 44.24ZM211.595 31.4H217.283C217.667 31.4 217.987 31.528 218.243 31.784C218.499 32.04 218.627 32.36 218.627 32.744C218.627 33.112 218.499 33.424 218.243 33.68C217.987 33.92 217.667 34.04 217.283 34.04H211.595C211.211 34.04 210.891 33.912 210.635 33.656C210.379 33.4 210.251 33.08 210.251 32.696C210.251 32.328 210.379 32.024 210.635 31.784C210.891 31.528 211.211 31.4 211.595 31.4ZM214.163 28.4C214.579 28.4 214.915 28.544 215.171 28.832C215.443 29.104 215.579 29.448 215.579 29.864V40.544C215.579 40.768 215.619 40.952 215.699 41.096C215.795 41.24 215.915 41.344 216.059 41.408C216.219 41.472 216.387 41.504 216.563 41.504C216.755 41.504 216.931 41.472 217.091 41.408C217.251 41.328 217.435 41.288 217.643 41.288C217.867 41.288 218.067 41.392 218.243 41.6C218.435 41.808 218.531 42.096 218.531 42.464C218.531 42.912 218.283 43.28 217.787 43.568C217.307 43.856 216.787 44 216.227 44C215.891 44 215.515 43.976 215.099 43.928C214.699 43.864 214.315 43.728 213.947 43.52C213.595 43.296 213.299 42.96 213.059 42.512C212.819 42.064 212.699 41.448 212.699 40.664V29.864C212.699 29.448 212.835 29.104 213.107 28.832C213.395 28.544 213.747 28.4 214.163 28.4Z" fill="black"/>
</svg>
