<?xml version="1.0" encoding="UTF-8" standalone="no"?>
<!-- Created with Inkscape (http://www.inkscape.org/) -->

<svg
   xmlns:dc="http://purl.org/dc/elements/1.1/"
   xmlns:cc="http://creativecommons.org/ns#"
   xmlns:rdf="http://www.w3.org/1999/02/22-rdf-syntax-ns#"
   xmlns:svg="http://www.w3.org/2000/svg"
   xmlns="http://www.w3.org/2000/svg"
   version="1.1"
   width="209.27887"
   height="28.76141"
   id="svg8535">
  <defs
     id="defs8537">
    <clipPath
       id="clipPath8469">
      <path
         d="m 0,0 841.89,0 0,595.276 L 0,595.276 0,0 z"
         id="path8471" />
    </clipPath>
    <clipPath
       id="clipPath8449">
      <path
         d="m 0,0 841.89,0 0,595.276 L 0,595.276 0,0 z"
         id="path8451" />
    </clipPath>
    <clipPath
       id="clipPath8425">
      <path
         d="m 0,0 841.89,0 0,595.276 L 0,595.276 0,0 z"
         id="path8427" />
    </clipPath>
    <clipPath
       id="clipPath8409">
      <path
         d="m 0,0 841.89,0 0,595.276 L 0,595.276 0,0 z"
         id="path8411" />
    </clipPath>
  </defs>
  <metadata
     id="metadata8540">
    <rdf:RDF>
      <cc:Work
         rdf:about="">
        <dc:format>image/svg+xml</dc:format>
        <dc:type
           rdf:resource="http://purl.org/dc/dcmitype/StillImage" />
        <dc:title></dc:title>
      </cc:Work>
    </rdf:RDF>
  </metadata>
  <g
     transform="translate(-270.36056,-517.98149)"
     id="layer1">
    <g
       transform="matrix(1.25,0,0,-1.25,-521.34031,1210.9264)"
       id="g8405">
      <g
         clip-path="url(#clipPath8409)"
         id="g8407">
        <g
           transform="translate(644.5737,540.2783)"
           id="g8413">
          <path
             d="m 0,0 0,3.884 9.976,0 C 9.984,3.757 9.99,3.617 9.995,3.465 9.999,3.314 10.001,3.09 10.001,2.794 c 0,-3.195 -0.845,-5.673 -2.534,-7.434 -1.69,-1.762 -4.068,-2.643 -7.133,-2.643 -1.508,0 -2.848,0.227 -4.021,0.68 -1.173,0.453 -2.221,1.146 -3.144,2.078 -0.881,0.889 -1.564,1.942 -2.052,3.158 -0.487,1.215 -0.73,2.488 -0.73,3.819 0,1.389 0.237,2.666 0.711,3.831 0.474,1.165 1.181,2.213 2.122,3.146 0.931,0.905 2,1.592 3.206,2.058 1.206,0.466 2.509,0.699 3.906,0.699 1.821,0 3.431,-0.36 4.833,-1.081 1.402,-0.72 2.58,-1.793 3.538,-3.217 L 4.299,5.729 C 3.774,6.466 3.183,7.014 2.528,7.374 1.872,7.733 1.137,7.914 0.325,7.914 -1.191,7.914 -2.384,7.408 -3.256,6.397 -4.128,5.385 -4.564,4.004 -4.564,2.252 c 0,-1.769 0.436,-3.161 1.308,-4.176 0.872,-1.016 2.066,-1.523 3.581,-1.523 1.287,0 2.36,0.313 3.219,0.941 C 4.403,-1.88 4.905,-1.044 5.049,0 L 0,0 z"
             id="path8415"
             style="fill:#00a139;fill-opacity:1;fill-rule:nonzero;stroke:none" />
        </g>
      </g>
    </g>
    <g
       transform="matrix(1.25,0,0,-1.25,299.4448,544.13549)"
       id="g8417">
      <path
         d="m 0,0 0,18.595 5.049,0 0,-14.225 6.312,0 0,-4.37 L 0,0 z"
         id="path8419"
         style="fill:#00a139;fill-opacity:1;fill-rule:nonzero;stroke:none" />
    </g>
    <g
       transform="matrix(1.25,0,0,-1.25,-521.34031,1210.9264)"
       id="g8421">
      <g
         clip-path="url(#clipPath8425)"
         id="g8423">
        <g
           transform="translate(688.0459,542.7059)"
           id="g8429">
          <path
             d="m 0,0 c 0,-1.338 -0.247,-2.592 -0.738,-3.761 -0.492,-1.169 -1.209,-2.215 -2.149,-3.138 -0.95,-0.915 -2.036,-1.621 -3.257,-2.116 -1.221,-0.496 -2.489,-0.744 -3.803,-0.744 -1.331,0 -2.605,0.248 -3.822,0.744 -1.216,0.495 -2.288,1.201 -3.212,2.116 -0.958,0.923 -1.684,1.973 -2.181,3.151 -0.496,1.177 -0.744,2.427 -0.744,3.748 0,1.33 0.248,2.582 0.744,3.755 0.497,1.173 1.223,2.221 2.181,3.145 0.924,0.914 1.996,1.619 3.212,2.115 1.217,0.496 2.491,0.744 3.822,0.744 1.323,0 2.597,-0.248 3.823,-0.744 C -4.899,8.519 -3.82,7.814 -2.887,6.9 -1.955,5.985 -1.24,4.939 -0.744,3.761 -0.248,2.584 0,1.33 0,0 m -9.929,-5.486 c 1.41,0 2.576,0.519 3.498,1.556 0.921,1.038 1.382,2.348 1.382,3.93 0,1.565 -0.468,2.871 -1.402,3.917 -0.935,1.046 -2.094,1.569 -3.478,1.569 -1.41,0 -2.576,-0.521 -3.497,-1.563 -0.921,-1.043 -1.382,-2.35 -1.382,-3.923 0,-1.599 0.454,-2.914 1.363,-3.942 0.909,-1.03 2.081,-1.544 3.516,-1.544"
             id="path8431"
             style="fill:#00a139;fill-opacity:1;fill-rule:nonzero;stroke:none" />
        </g>
        <g
           transform="translate(689.6302,533.4327)"
           id="g8433">
          <path
             d="m 0,0 0,18.595 5.105,0 c 2.105,0 3.576,-0.068 4.412,-0.203 0.836,-0.135 1.555,-0.368 2.158,-0.698 0.687,-0.381 1.211,-0.891 1.572,-1.53 0.361,-0.638 0.541,-1.377 0.541,-2.214 0,-1.058 -0.269,-1.897 -0.808,-2.519 -0.538,-0.622 -1.396,-1.094 -2.575,-1.415 1.319,-0.102 2.349,-0.566 3.093,-1.392 0.743,-0.826 1.116,-1.93 1.116,-3.311 0,-0.992 -0.21,-1.864 -0.63,-2.618 C 13.565,1.94 12.965,1.356 12.186,0.941 11.551,0.602 10.766,0.36 9.835,0.216 8.903,0.072 7.377,0 5.259,0 L 0,0 z m 4.709,11.167 1.023,0 c 1.261,0 2.126,0.137 2.595,0.412 0.469,0.274 0.703,0.749 0.703,1.425 0,0.701 -0.22,1.193 -0.658,1.476 -0.439,0.283 -1.293,0.425 -2.563,0.425 l -1.1,0 0,-3.738 z m 0,-7.38 1.79,0 c 1.205,0 2.057,0.151 2.557,0.454 C 9.557,4.543 9.807,5.048 9.807,5.755 9.807,6.54 9.578,7.088 9.12,7.399 8.662,7.71 7.814,7.865 6.576,7.865 l -1.867,0 0,-4.078 z"
             id="path8435"
             style="fill:#00a139;fill-opacity:1;fill-rule:nonzero;stroke:none" />
        </g>
        <g
           transform="translate(704.0542,533.4327)"
           id="g8437">
          <path
             d="m 0,0 6.403,18.595 6.349,0 L 19.178,0 l -5.041,0 -0.94,3.301 -7.2,0 L 5.032,0 0,0 z m 7.089,6.943 5.041,0 -1.892,6.137 C 10.179,13.266 10.099,13.567 9.997,13.982 9.895,14.397 9.764,14.931 9.603,15.583 9.493,15.125 9.385,14.689 9.279,14.274 9.173,13.859 9.065,13.461 8.956,13.08 L 7.089,6.943 z"
             id="path8439"
             style="fill:#00a139;fill-opacity:1;fill-rule:nonzero;stroke:none" />
        </g>
      </g>
    </g>
    <g
       transform="matrix(1.25,0,0,-1.25,383.97406,544.13549)"
       id="g8441">
      <path
         d="m 0,0 0,18.595 5.049,0 0,-14.225 6.312,0 0,-4.37 L 0,0 z"
         id="path8443"
         style="fill:#00a139;fill-opacity:1;fill-rule:nonzero;stroke:none" />
    </g>
    <g
       transform="matrix(1.25,0,0,-1.25,-521.34031,1210.9264)"
       id="g8445">
      <g
         clip-path="url(#clipPath8449)"
         id="g8447">
        <g
           transform="translate(747.0157,543.0458)"
           id="g8453">
          <path
             d="m 0,0 7.682,0 0,-0.625 c 0,-2.93 -0.83,-5.241 -2.489,-6.934 -1.659,-1.693 -3.923,-2.54 -6.792,-2.54 -0.872,0 -1.704,0.094 -2.495,0.28 -0.792,0.187 -1.522,0.457 -2.19,0.814 -1.524,0.838 -2.701,1.996 -3.53,3.475 -0.83,1.478 -1.244,3.157 -1.244,5.038 0,1.549 0.247,2.949 0.742,4.199 0.494,1.25 1.242,2.349 2.24,3.298 0.837,0.796 1.81,1.397 2.918,1.804 1.109,0.407 2.335,0.61 3.681,0.61 1.785,0 3.333,-0.324 4.645,-0.97 C 4.479,7.801 5.566,6.827 6.429,5.525 L 4.568,4.03 C 3.899,5.162 3.066,6.012 2.068,6.579 1.07,7.145 -0.09,7.428 -1.409,7.428 c -2.157,0 -3.908,-0.73 -5.253,-2.191 -1.345,-1.46 -2.017,-3.37 -2.017,-5.729 0,-2.225 0.683,-4.051 2.049,-5.477 1.365,-1.426 3.106,-2.139 5.221,-2.139 1.861,0 3.411,0.566 4.651,1.698 1.238,1.132 1.926,2.605 2.061,4.419 L 0,-1.991 0,0 z"
             id="path8455"
             style="fill:#00a139;fill-opacity:1;fill-rule:nonzero;stroke:none" />
        </g>
        <g
           transform="translate(756.24,534.6761)"
           id="g8457">
          <path
             d="M 0,0 C 0,0.418 0.149,0.777 0.446,1.076 0.743,1.375 1.1,1.524 1.516,1.524 1.941,1.524 2.304,1.376 2.606,1.082 2.908,0.787 3.059,0.426 3.059,0 3.059,-0.419 2.91,-0.772 2.613,-1.058 2.315,-1.343 1.95,-1.486 1.516,-1.486 1.092,-1.486 0.732,-1.343 0.439,-1.058 0.146,-0.772 0,-0.419 0,0"
             id="path8459"
             style="fill:#00a139;fill-opacity:1;fill-rule:nonzero;stroke:none" />
        </g>
      </g>
    </g>
    <g
       transform="matrix(1.25,0,0,-1.25,440.77319,519.98149)"
       id="g8461">
      <path
         d="m 0,0 8.449,-19.323 -2.398,0 -2.41,5.729 -7.257,0 -2.41,-5.729 -2.42,0 L 0,0 z m 0,-4.875 -2.956,-6.826 5.912,0 L 0,-4.875 z"
         id="path8463"
         style="fill:#00a139;fill-opacity:1;fill-rule:nonzero;stroke:none" />
    </g>
    <g
       transform="matrix(1.25,0,0,-1.25,-521.34031,1210.9264)"
       id="g8465">
      <g
         clip-path="url(#clipPath8469)"
         id="g8467">
        <g
           transform="translate(780.1793,534.6761)"
           id="g8473">
          <path
             d="M 0,0 C 0,0.418 0.149,0.777 0.446,1.076 0.743,1.375 1.1,1.524 1.516,1.524 1.941,1.524 2.304,1.376 2.606,1.082 2.908,0.787 3.059,0.426 3.059,0 3.059,-0.419 2.91,-0.772 2.613,-1.058 2.315,-1.343 1.95,-1.486 1.516,-1.486 1.092,-1.486 0.732,-1.343 0.439,-1.058 0.146,-0.772 0,-0.419 0,0"
             id="path8475"
             style="fill:#00a139;fill-opacity:1;fill-rule:nonzero;stroke:none" />
        </g>
        <g
           transform="translate(788.9009,541.7834)"
           id="g8477">
          <path
             d="m 0,0 0,-8.351 -2.185,0 0,18.595 3.923,0 c 1.359,0 2.361,-0.072 3.003,-0.216 C 5.383,9.884 5.941,9.647 6.414,9.317 7.005,8.894 7.468,8.314 7.801,7.578 8.135,6.842 8.302,6.025 8.302,5.128 8.302,4.231 8.135,3.414 7.801,2.679 7.468,1.942 7.005,1.362 6.414,0.939 5.941,0.601 5.385,0.36 4.747,0.215 4.109,0.071 3.107,0 1.738,0 L 1.117,0 0,0 z m 0,1.991 1.116,0 c 1.893,0 3.169,0.221 3.824,0.665 C 5.595,3.1 5.923,3.876 5.923,4.984 5.923,6.167 5.586,7 4.914,7.482 4.242,7.964 2.976,8.205 1.116,8.205 L 0,8.205 0,1.991 z"
             id="path8479"
             style="fill:#00a139;fill-opacity:1;fill-rule:nonzero;stroke:none" />
        </g>
        <g
           transform="translate(796.1248,534.6761)"
           id="g8481">
          <path
             d="M 0,0 C 0,0.418 0.149,0.777 0.446,1.076 0.743,1.375 1.1,1.524 1.516,1.524 1.941,1.524 2.304,1.376 2.606,1.082 2.908,0.787 3.059,0.426 3.059,0 3.059,-0.419 2.91,-0.772 2.613,-1.058 2.315,-1.343 1.95,-1.486 1.516,-1.486 1.092,-1.486 0.732,-1.343 0.439,-1.058 0.146,-0.772 0,-0.419 0,0"
             id="path8483"
             style="fill:#00a139;fill-opacity:1;fill-rule:nonzero;stroke:none" />
        </g>
      </g>
    </g>
  </g>
</svg>
